<svg width="96" height="96" viewBox="0 0 96 96" fill="none" xmlns="http://www.w3.org/2000/svg">
<circle cx="48" cy="48" r="46.5" fill="white" stroke="#6148FF" stroke-width="3"/>
<rect x="58" y="62" width="32" height="32" rx="8" fill="white"/>
<path fill-rule="evenodd" clip-rule="evenodd" d="M76.5055 76.1202C75.9116 76.1202 75.4291 75.5519 75.4291 74.8525C75.4291 74.153 75.9116 73.5847 76.5055 73.5847C77.0993 73.5847 77.5818 74.153 77.5818 74.8525C77.5818 75.5519 77.0993 76.1202 76.5055 76.1202ZM76.5055 72.4918C75.392 72.4918 74.4642 73.5847 74.4642 74.8962C74.4642 76.2077 75.3549 77.3005 76.5055 77.3005C77.6189 77.3005 78.5467 76.2077 78.5467 74.8962C78.5467 73.5847 77.6189 72.4918 76.5055 72.4918ZM81.7015 80.9377L79.1035 78.4372L76.409 81.0251L70.7156 74.7213L66.0021 79.8667V71.7923C66.0021 71.4426 66.2248 71.1803 66.5217 71.1803H81.1819C81.4788 71.1803 81.7015 71.4426 81.7015 71.7923V80.9377ZM81.7015 84.1202C81.7015 84.4699 81.4788 84.7322 81.1819 84.7322H79.7604L77.1438 81.8339L79.1035 79.9235L81.7015 82.3891V84.1202ZM66.5217 84.7322C66.2248 84.7322 66.0021 84.4699 66.0021 84.1202V81.4273L70.7156 76.2951L78.3426 84.7322H66.5217ZM81.219 70H66.5588C65.7052 70 65 70.8306 65 71.8361V84.1639C65 85.1694 65.7052 86 66.5588 86H81.219C82.0726 86 82.7778 85.1694 82.7778 84.1639V71.8361C82.7778 70.8306 82.0726 70 81.219 70Z" fill="#6148FF"/>
</svg>
